<svg width="76" height="86" viewBox="0 0 76 86" fill="none" xmlns="http://www.w3.org/2000/svg">
<path fill-rule="evenodd" clip-rule="evenodd" d="M8.84397 0.239858C6.61388 0.862853 4.99063 2.38985 4.18876 4.61913C3.8302 5.61535 3.8267 5.73561 3.87409 15.1171L3.92197 24.6074L4.44354 25.6991C5.39507 27.6912 6.87533 28.9384 8.92072 29.4714C10.216 29.8088 19.4428 29.8456 19.8704 29.515C20.3015 29.1818 20.5388 28.5912 20.4248 28.1342C20.2024 27.2419 20.0156 27.2109 14.855 27.2099C12.1304 27.2093 9.83304 27.1356 9.48182 27.0373C8.39114 26.7325 7.31281 25.8638 6.80626 24.8821L6.34126 23.9812V14.879V5.77693L6.77156 4.9077C7.00815 4.42966 7.48933 3.80918 7.84088 3.52885C9.18984 2.45334 7.36236 2.51952 35.6959 2.51952C61.4386 2.51952 61.5056 2.51868 61.8699 2.17704C62.3607 1.71664 62.3607 0.802888 61.8699 0.342487C61.5056 0.000671609 61.4497 -2.73401e-07 35.5497 0.0149489C15.3482 0.0267067 9.42843 0.0765933 8.84397 0.239858ZM65.6948 0.20996C65.2892 0.520029 65.0897 1.19392 65.264 1.6644C65.5407 2.41068 65.8572 2.50844 68.012 2.51415C70.9831 2.52204 72.2653 3.11934 73.1504 4.9077L73.5807 5.77693V14.8195C73.5807 24.5887 73.5997 24.364 72.6724 25.5879C72.4386 25.8965 71.8528 26.369 71.3707 26.6379L70.494 27.1269L53.4392 27.2109C37.5454 27.2891 36.3614 27.3147 36.0454 27.5871C35.538 28.0247 35.5894 28.9414 36.146 29.3822C36.5842 29.7292 36.6432 29.7304 53.2963 29.7304C71.7342 29.7304 71.0762 29.7658 72.8905 28.6735C74.0284 27.9882 74.8191 27.0797 75.4784 25.6991L76 24.6074V14.8566V5.10573L75.3707 3.82363C74.4502 1.9486 73.0189 0.772654 70.9946 0.228269C69.8984 -0.0665157 66.0738 -0.0797852 65.6948 0.20996ZM55.8509 8.17871C55.1386 8.36566 55.0607 8.95103 55.0607 14.1087V18.9957L55.4703 19.4079C55.9957 19.937 56.7196 19.9469 57.2006 19.4316C57.5093 19.1007 57.5634 18.8467 57.5634 17.7259V16.4088L59.3151 18.1248C60.9582 19.7341 61.1049 19.8374 61.6762 19.7883C62.454 19.7218 63.0008 19.0615 62.8336 18.3907C62.7662 18.1204 61.8714 17.1084 60.601 15.8659L58.481 13.7922L59.8992 12.4852C62.3472 10.2293 62.5688 9.98168 62.5688 9.5023C62.5688 8.90181 61.8805 8.23044 61.265 8.23044C60.888 8.23044 60.4326 8.55328 59.2137 9.68539L57.6468 11.1405L57.5634 9.92222C57.4935 8.90198 57.4159 8.65188 57.086 8.3833C56.6993 8.06819 56.437 8.02485 55.8509 8.17871ZM17.52 8.56638C17.2008 8.8877 17.1863 9.12622 17.1863 14.0254C17.1863 18.9025 17.2022 19.1643 17.5159 19.4801C17.9967 19.9642 18.5101 20.043 20.5843 19.9508C22.0247 19.8868 22.5995 19.789 23.1269 19.5181C23.8837 19.1296 24.7936 18.172 25.0523 17.492C25.4698 16.3947 25.1304 14.5177 24.3651 13.6918C24.0745 13.378 24.0688 13.288 24.2857 12.4503C24.5665 11.3666 24.4227 10.5266 23.7921 9.5673C23.0702 8.46913 22.3836 8.23044 19.946 8.23044C18.0761 8.23044 17.8182 8.26622 17.52 8.56638ZM31.5023 8.79062C29.938 9.23624 28.5898 10.4355 27.8213 12.0652C27.3967 12.966 27.3201 13.3295 27.3201 14.4453C27.3201 15.5607 27.3976 15.9289 27.8267 16.8521C28.4327 18.1559 29.391 19.139 30.6743 19.7734C31.4952 20.1792 31.815 20.24 33.1202 20.2393C34.9314 20.2383 35.7679 19.9111 37.0523 18.7018C38.3009 17.526 38.7528 16.5341 38.8386 14.7812C38.8967 13.5947 38.8449 13.1838 38.5328 12.3499C38.0554 11.0748 36.8189 9.73107 35.5797 9.141C34.4689 8.6119 32.6721 8.45754 31.5023 8.79062ZM45.1333 8.79096C43.9081 9.20214 43.1002 9.71797 42.3287 10.5818C40.3342 12.815 40.3654 16.1412 42.402 18.3845C45.5842 21.8898 51.2023 20.3907 52.3335 15.7343C53.1826 12.2398 50.6387 8.84974 47.0086 8.6376C46.2615 8.59393 45.546 8.65255 45.1333 8.79096ZM21.4331 10.777C21.6668 10.8842 21.8581 11.0291 21.8581 11.0992C21.8581 11.1691 21.9014 11.34 21.9543 11.4791C22.1377 11.96 21.4306 12.4297 20.5233 12.4297H19.689V11.5058V10.582H20.3486C20.7113 10.582 21.1993 10.6697 21.4331 10.777ZM34.5351 11.4638C35.5856 12.0042 36.2361 12.8939 36.3346 13.9252C36.4505 15.1408 36.261 15.8834 35.6578 16.5748C34.3461 18.0788 32.2336 18.19 30.8112 16.8299C30.096 16.1459 29.8128 15.4697 29.8128 14.4453C29.8128 13.4207 30.0961 12.7443 30.8112 12.061C31.8644 11.0547 33.2939 10.8254 34.5351 11.4638ZM48.1455 11.503C50.427 12.6559 50.6307 15.7677 48.5213 17.2394C46.3736 18.7375 43.3814 17.1109 43.3814 14.4453C43.3814 11.9007 45.8794 10.3578 48.1455 11.503ZM22.3679 15.2589C22.867 15.6657 22.8765 16.5182 22.3873 17.0107C22.1037 17.296 21.7768 17.3879 20.8578 17.4401L19.689 17.5067V16.2279V14.9492H20.8385C21.7069 14.9492 22.0808 15.0249 22.3679 15.2589ZM26.6956 21.6469C25.2496 22.1243 24.127 23.1047 23.5005 24.4379L23.0263 25.4472L23.0262 30.5462C23.026 35.337 23.0083 35.6378 22.734 35.5231C21.9446 35.1929 20.9092 34.9374 20.3603 34.9374C19.3922 34.9374 18.1008 35.3993 17.2581 36.0468L16.4814 36.6438L16.0413 36.2289C14.3508 34.6356 11.5249 34.5548 9.58677 36.044L8.80643 36.6438L8.36628 36.2289C7.45062 35.3659 6.52779 35.0273 5.0899 35.0268C2.91955 35.0261 1.45697 35.9214 0.509443 37.8302L0.00105956 38.8543V44.8744C0.00105956 50.6705 0.0134063 50.9068 0.334754 51.2303C0.784241 51.6828 1.68772 51.6741 2.1025 51.213C2.39882 50.8836 2.42602 50.4588 2.50377 44.9261C2.58302 39.2937 2.60438 38.9693 2.92623 38.5356C3.47632 37.7947 4.30188 37.4257 5.22738 37.5071C6.14721 37.5881 6.77706 37.9946 7.25892 38.8183C7.56191 39.3362 7.60029 39.7793 7.67603 43.6437C7.75379 47.6086 7.78148 47.915 8.08331 48.1369C8.53563 48.4693 9.23556 48.4335 9.70139 48.054C10.093 47.7352 10.0958 47.7065 10.1787 43.3627C10.2562 39.3037 10.2864 38.9596 10.6012 38.5354C11.1515 37.7945 11.977 37.4257 12.9024 37.5071C13.8222 37.5881 14.452 37.9946 14.9339 38.8183C15.2369 39.3362 15.2753 39.7793 15.351 43.6437C15.4288 47.6086 15.4565 47.915 15.7583 48.1369C16.2106 48.4693 16.9105 48.4335 17.3764 48.054C17.768 47.7352 17.7708 47.7065 17.8537 43.3627C17.9311 39.3037 17.9613 38.9596 18.2762 38.5354C18.8264 37.7945 19.652 37.4257 20.5773 37.5071C21.4972 37.5881 22.127 37.9946 22.6089 38.8183C22.9119 39.3362 22.9502 39.7793 23.026 43.6437C23.1037 47.6086 23.1314 47.915 23.4333 48.1369C23.9159 48.4916 24.7562 48.4343 25.1274 48.0215C25.4314 47.6833 25.4489 47.1841 25.5287 36.6117C25.6101 25.8268 25.6205 25.5443 25.9512 25.0985C26.5011 24.3572 27.3266 23.9882 28.2523 24.0697C29.2477 24.1572 29.8384 24.5746 30.3256 25.5345L30.701 26.2743V40.18C30.701 53.8619 30.7063 54.0912 31.0347 54.4217C31.2222 54.6105 31.5908 54.7577 31.8761 54.7577C32.4303 54.7577 32.3818 54.7978 36.5406 50.889C39.8494 47.7791 39.9491 47.703 40.7118 47.703C41.5384 47.703 42.3279 48.3428 42.4749 49.1317C42.5685 49.6336 42.2711 50.3099 39.9456 54.8873C37.3967 59.904 37.3173 60.0912 37.5237 60.5929C37.6441 60.8855 37.9438 61.1977 38.2109 61.3093C39.1987 61.7211 39.384 61.4757 42.1477 56.1014C43.549 53.3761 44.7834 50.7852 44.8905 50.344C45.3408 48.4887 44.266 46.3445 42.4637 45.5026C41.5747 45.0874 39.8585 45.0847 38.9599 45.4972C38.5928 45.6657 37.1503 46.8764 35.7541 48.1879L33.2157 50.5722L33.168 38.0097C33.1207 25.5831 33.1164 25.4388 32.7637 24.6708C31.9018 22.7941 30.2553 21.6523 28.2817 21.5621C27.6393 21.5329 26.9255 21.571 26.6956 21.6469ZM56.463 33.5905C54.5685 34.8848 54.0596 35.4005 54.0596 36.0253C54.0596 36.6614 54.6732 37.289 55.2953 37.289C55.6498 37.289 57.5629 35.9848 58.4393 35.1458C59.0238 34.5862 59.0428 33.892 58.4885 33.3341C57.9293 32.7709 57.6016 32.8124 56.463 33.5905ZM68.9849 33.3341C68.5825 33.7391 68.4477 34.4772 68.7029 34.8778C68.9699 35.2967 71.8397 37.289 72.1762 37.289C72.8 37.289 73.4139 36.6623 73.4139 36.0253C73.4139 35.4005 72.905 34.8848 71.0104 33.5905C69.8719 32.8124 69.5442 32.7709 68.9849 33.3341ZM62.9025 35.2733C62.6043 35.5735 62.5688 35.8332 62.5688 37.7089C62.5688 39.5846 62.6043 39.8443 62.9025 40.1444C63.0879 40.331 63.4586 40.4804 63.7367 40.4804C64.0149 40.4804 64.3856 40.331 64.571 40.1444C64.8689 39.8444 64.9047 39.5846 64.9047 37.7154C64.9047 35.7786 64.8775 35.5968 64.5394 35.2799C64.0746 34.8438 63.332 34.841 62.9025 35.2733ZM0.440702 54.7699L0.00105956 55.118V63.6704C0.00105956 73.3727 -0.0918742 72.634 1.46298 75.2829L2.32057 76.7439L2.37046 80.9669C2.42018 85.1747 2.42185 85.1913 2.81427 85.511C3.34768 85.9455 4.03409 85.9175 4.4769 85.4431C4.83062 85.064 4.83963 84.9426 4.83963 80.5816V76.1089L3.71341 74.2097L2.58719 72.3103L2.50377 63.7712L2.42035 55.2322L1.95217 54.8269C1.37872 54.3305 1.01299 54.3167 0.440702 54.7699ZM35.5916 63.9109C35.3957 64.049 34.6963 65.2018 34.0372 66.4724C33.3782 67.7433 32.7145 68.9261 32.5625 69.1011C32.4105 69.276 30.5967 71.0041 28.5319 72.9411C26.4672 74.8781 24.609 76.6478 24.4025 76.8735C24.0354 77.275 24.0271 77.3716 24.0271 81.2296V85.1752L24.4367 85.5874C24.6619 85.8142 25.0407 85.9998 25.2784 85.9998C25.5162 85.9998 25.8949 85.8142 26.1202 85.5874C26.5284 85.1765 26.5298 85.1634 26.5298 81.7372V78.2994L30.2421 74.83C32.284 72.9218 34.2076 71.0452 34.5169 70.6597C34.8261 70.2742 35.6293 68.8436 36.3015 67.4806C37.384 65.2861 37.5048 64.9476 37.3577 64.5223C37.2023 64.074 36.6239 63.66 36.1527 63.66C36.0399 63.66 35.7873 63.7729 35.5916 63.9109Z" fill="#3F5260"/>
</svg>
