<svg width="55" height="55" viewBox="0 0 55 55" fill="none" xmlns="http://www.w3.org/2000/svg">
<path fill-rule="evenodd" clip-rule="evenodd" d="M25.2592 33.626L21.0029 30.9066V29.7462L26.215 33.0754L25.2592 33.626ZM26.2788 30.7921V31.9552L21.0029 28.5844V27.4213L26.2788 30.7921ZM26.2788 28.469V29.6321L21.0029 26.2631V25.1L26.2788 28.469ZM26.2788 26.1427V27.3059L21.0029 23.9351V22.7719L26.2788 26.1427ZM17.1355 16.6369L22.9021 13.4822L23.0426 20.5781L26.2784 22.6449V24.9832L21.0025 21.6129L17.1355 23.7494V16.6369ZM16.216 38.8256V21.7359L13.1917 23.749V40.5694L16.216 38.8256ZM24.0519 34.3177L21.0025 32.0675V36.0717L24.0519 34.3177ZM32.9613 35.7076V15.4425L34.75 13.9613V9.19659L27.6805 3.57426V32.671L32.9613 35.7076ZM38.3719 38.8207V13.735L37.3267 12.8689V38.2208L38.3719 38.8207ZM39.9208 39.6291V15.0175L38.8127 14.1009V39.0752L39.9208 39.7123V39.6291ZM27.9256 45.1373H29.7664V46.9665H27.9256V45.1373ZM24.8349 45.1373H26.6721V46.9665H24.8354L24.8349 45.1373ZM27.9256 42.1374H29.7664V43.9715H27.9256V42.1374ZM24.8349 42.1374H26.6721V43.9715H24.8354L24.8349 42.1374ZM46.1296 44.8483C50.6483 40.0762 53.1613 33.7611 53.1525 27.2003C53.1525 20.0874 50.2584 13.6455 45.5801 8.98409C43.1821 6.58886 40.3327 4.6894 37.1956 3.39488C34.0586 2.10036 30.6957 1.43629 27.3002 1.44084C20.1616 1.44084 13.6964 4.32268 9.01809 8.98409C4.3398 13.6455 1.44752 20.086 1.44752 27.2003C1.43773 33.7619 3.95083 40.0781 8.47033 44.8506L27.3016 34.017L46.1296 44.8483ZM27.3002 -0.000976562C34.8375 -0.000976562 41.6633 3.04415 46.606 7.96637C51.5487 12.8886 54.6 19.687 54.6 27.2025C54.6093 34.0129 52.0446 40.5772 47.4164 45.5887L50.5875 47.4148L27.3002 37.8115L4.01473 47.4126L7.18357 45.5865C2.55534 40.5749 -0.00932515 34.0107 2.54791e-05 27.2003C2.54791e-05 19.6883 3.05574 12.8886 7.99578 7.96637C12.9358 3.04415 19.7611 -0.000976562 27.3002 -0.000976562ZM41.4064 40.5681V16.2495L40.3622 15.383V39.9655L41.4064 40.5681Z" fill="white"/>
<path d="M10.08 45.978C14.7973 50.541 20.9353 53.0681 27.3007 53.0681C33.6661 53.0681 39.8041 50.541 44.5214 45.978L45.979 46.6215C40.9484 51.7512 34.257 54.6091 27.3007 54.599C20.0591 54.599 13.4817 51.5651 8.62109 46.6215L10.08 45.978Z" fill="white"/>
</svg>
