<svg width="38" height="38" viewBox="0 0 38 38" fill="none" xmlns="http://www.w3.org/2000/svg">
<path fill-rule="evenodd" clip-rule="evenodd" d="M17.5797 23.4034L14.6174 21.5108V20.7031L18.2449 23.0202L17.5797 23.4034ZM18.2893 21.4311V22.2406L14.6174 19.8946V19.0851L18.2893 21.4311ZM18.2893 19.8143V20.6238L14.6174 18.279V17.4695L18.2893 19.8143ZM18.2893 18.1953V19.0048L14.6174 16.6588V15.8493L18.2893 18.1953ZM11.9258 11.5795L15.9392 9.38392L16.037 14.3225L18.289 15.7609V17.3883L14.6171 15.0426L11.9258 16.5296V11.5795ZM11.2859 27.0222V15.1282L9.18106 16.5293V28.2358L11.2859 27.0222ZM16.7394 23.8848L14.6171 22.3187V25.1056L16.7394 23.8848ZM22.9401 24.8521V10.7482L24.185 9.71737V6.40124L19.2648 2.48826V22.7387L22.9401 24.8521ZM26.7057 27.0188V9.55982L25.9783 8.95706V26.6013L26.7057 27.0188ZM27.7837 27.5814V10.4524L27.0125 9.81451V27.1959L27.7837 27.6393V27.5814ZM19.4354 31.4149H20.7166V32.688H19.4354V31.4149ZM17.2844 31.4149H18.563V32.688H17.2847L17.2844 31.4149ZM19.4354 29.3271H20.7166V30.6036H19.4354V29.3271ZM17.2844 29.3271H18.563V30.6036H17.2847L17.2844 29.3271ZM32.1049 31.2138C35.2497 27.8926 36.9987 23.4974 36.9926 18.9313C36.9926 13.9809 34.9784 9.49756 31.7224 6.25335C30.0535 4.58634 28.0704 3.26437 25.8871 2.36342C23.7038 1.46247 21.3633 1.0003 19.0002 1.00346C14.0319 1.00346 9.53228 3.00914 6.27633 6.25335C3.02038 9.49756 1.00743 13.98 1.00743 18.9313C1.00062 23.498 2.74967 27.8939 5.89511 31.2154L19.0011 23.6756L32.1049 31.2138ZM19.0002 0C24.2459 0 28.9964 2.11932 32.4364 5.54504C35.8764 8.97076 38 13.7023 38 18.9328C38.0065 23.6727 36.2216 28.2412 33.0004 31.7291L35.2074 33L19.0002 26.3164L2.79413 32.9984L4.99956 31.7275C1.77844 28.2396 -0.00649003 23.6711 1.77327e-05 18.9313C1.77327e-05 13.7032 2.12671 8.97076 5.56483 5.54504C9.00295 2.11932 13.7531 0 19.0002 0ZM28.8177 28.2349V11.3099L28.0909 10.7068V27.8155L28.8177 28.2349Z" fill="#3F5260"/>
<path d="M7.01537 32C10.2985 35.1757 14.5703 36.9345 19.0005 36.9345C23.4306 36.9345 27.7025 35.1757 30.9856 32L32 32.4479C28.4989 36.018 23.8419 38.007 19.0005 38C13.9605 38 9.38281 35.8884 6 32.4479L7.01537 32Z" fill="#A8B1B8"/>
</svg>
