<svg width="90" height="90" viewBox="0 0 90 90" fill="none" xmlns="http://www.w3.org/2000/svg">
<path fill-rule="evenodd" clip-rule="evenodd" d="M73.6976 0.333413C72.9717 1.00973 72.9753 3.35968 73.7032 4.03793C74.1754 4.47779 74.8913 4.4755 75.3666 4.03265C76.0925 3.35634 76.089 1.00639 75.361 0.328139C74.8888 -0.111719 74.173 -0.109434 73.6976 0.333413ZM64.799 4.0418C64.451 4.31552 64.3358 4.56428 64.3358 5.04264C64.3358 5.58323 64.481 5.81986 65.299 6.61203C66.3311 7.61182 66.9104 7.78006 67.6167 7.28535C68.4428 6.70679 68.2519 5.68397 67.1196 4.62142C66.0324 3.60106 65.5214 3.47342 64.799 4.0418ZM82.8825 3.88164C82.3219 4.19035 81.3805 5.12931 81.1058 5.65355C80.6278 6.5665 81.2508 7.54502 82.3101 7.54502C82.6661 7.54502 83.0684 7.28711 83.7652 6.61203C84.5832 5.81986 84.7284 5.58323 84.7284 5.04264C84.7284 4.02369 83.7464 3.40592 82.8825 3.88164ZM72.6862 6.38665C70.4518 6.94131 68.5123 8.52178 67.4838 10.6265C66.9039 11.8135 66.8849 11.9188 66.8849 13.9618C66.8849 16.0048 66.9039 16.1101 67.4838 17.2971C68.6097 19.601 70.7604 21.2098 73.2956 21.6446C76.6382 22.2177 80.051 20.427 81.5804 17.2971C82.1604 16.1101 82.1794 16.0048 82.1794 13.9618C82.1794 11.9188 82.1604 11.8133 81.5795 10.6216C79.9504 7.2799 76.2284 5.50746 72.6862 6.38665ZM76.0556 9.03828C78.2184 9.68049 79.6303 11.625 79.6303 13.9618C79.6303 19.3674 72.3853 21.1305 69.977 16.3111C67.9251 12.2047 71.662 7.73348 76.0556 9.03828ZM37.5266 9.18578C36.7031 9.55936 27.8946 14.6009 27.55 14.8957C27.1274 15.2573 27.1517 16.2444 27.594 16.6868C28.2573 17.3501 28.759 17.1567 33.7525 14.3134C36.409 12.8008 38.734 11.5885 38.9778 11.5885C39.5161 11.5885 58.454 22.3764 58.6046 22.769C58.7961 23.2681 58.715 23.85 58.4026 24.2194C57.6854 25.0671 57.7601 25.1005 48.2645 19.6835C43.3413 16.875 39.1487 14.5773 38.9474 14.5773C38.7461 14.5775 34.6445 16.8272 29.8331 19.5766C25.0215 22.3262 20.9367 24.6227 20.7556 24.6802C20.2537 24.8394 19.5563 24.4374 19.3119 23.8477C18.9542 22.9837 19.3483 22.548 21.7355 21.1697C24.3626 19.6527 24.4296 19.5954 24.4296 18.8628C24.4296 18.134 23.9089 17.5658 23.241 17.5658C22.6152 17.5658 18.5752 19.8468 17.702 20.6931C15.1758 23.1419 17.0907 27.3766 20.6893 27.2989L21.7926 27.2752V34.601V41.9269L17.4789 44.4495C12.7585 47.2101 12.1246 47.7407 11.7672 49.2305C11.3351 51.0321 12.1378 52.7859 13.7938 53.6584C14.6761 54.1234 16.3501 54.167 17.1779 53.7467L17.7493 53.4564V61.4394V69.4225L16.6505 69.9718C13.6971 71.4484 10.2233 74.3894 8.635 76.7578C7.74721 78.0815 6.82287 79.9182 6.41836 81.1624L6.11827 82.0854L4.77007 82.0864C2.87954 82.0876 2.16193 82.3301 1.20013 83.2919C0.0701021 84.4218 -0.24862 85.6754 0.187887 87.2715C0.434708 88.1736 1.82633 89.5515 2.74962 89.8078C3.62474 90.051 24.8441 90.0693 25.2961 89.8273C25.4698 89.7344 25.7082 89.426 25.8258 89.1422C26.0016 88.7177 25.9914 88.5333 25.7685 88.102C25.6194 87.8137 25.3694 87.5287 25.2128 87.4686C25.0563 87.4087 20.1055 87.3594 14.211 87.3594H3.4936L3.06219 86.9278C2.51212 86.3779 2.51212 85.7039 3.06219 85.154L3.4936 84.7224H44.998H86.5024L86.9338 85.154C87.4839 85.7039 87.4839 86.3779 86.9338 86.9278L86.5024 87.3594H58.4782H30.4542L29.991 87.7239C29.655 87.9881 29.5277 88.2502 29.5277 88.678C29.5277 89.1057 29.655 89.3678 29.991 89.632L30.4542 89.9965H58.4939C80.075 89.9965 86.7002 89.9469 87.2571 89.7816C87.6919 89.6524 88.2984 89.249 88.7767 88.7708C90.4083 87.139 90.4078 84.9733 88.7751 83.2908C87.8221 82.3086 87.1421 82.0876 85.0689 82.0864L83.5634 82.0854L82.3033 80.5975C79.946 77.8148 74.321 73.6468 72.9223 73.6468C72.3543 73.6468 71.7194 74.3289 71.7194 74.939C71.7194 75.5485 72.0326 75.8268 74.62 77.5159C76.6577 78.846 79.1781 80.9092 79.7328 81.7012L80.0017 82.0854H44.4806C16.1808 82.0854 8.95934 82.0407 8.95952 81.8656C8.9597 81.5231 9.94276 79.529 10.5651 78.6087C12.3834 75.9198 14.8625 73.8669 18.3646 72.1504C23.3418 69.7108 29.503 68.5471 37.4299 68.5494C47.8349 68.5522 58.387 70.221 65.7234 73.0238C67.4081 73.6672 67.821 73.688 68.4231 73.1593C68.8306 72.8014 68.8218 71.8041 68.4075 71.3897C67.9692 70.9514 63.7334 69.4552 60.8638 68.7251L60.1167 68.535V60.9778V53.4206L60.688 53.7252C61.5109 54.1644 63.1759 54.131 64.0721 53.6574C66.1189 52.5762 66.8283 50.4003 65.8041 48.3451C65.2614 47.256 65.0926 47.1361 59.7195 44.0214L56.0849 41.9144L56.0791 34.6L56.0733 27.2855L57.2599 27.2919C59.6789 27.3049 61.3471 25.6661 61.3446 23.2794C61.3436 22.3277 60.6365 20.8733 59.9159 20.3406C59.5912 20.1007 55.0537 17.464 49.8325 14.4815C40.34 9.05903 40.3392 9.0585 39.1967 9.00259C38.4922 8.96796 37.8516 9.03828 37.5266 9.18578ZM61.0289 13.0018C60.5117 13.4836 60.5117 14.44 61.0289 14.9219C61.3462 15.2176 61.648 15.2803 62.7536 15.2803C64.3492 15.2803 64.8632 14.9591 64.8632 13.9618C64.8632 12.9645 64.3492 12.6433 62.7536 12.6433C61.648 12.6433 61.3462 12.7061 61.0289 13.0018ZM84.5859 13.0018C84.0687 13.4836 84.0687 14.44 84.5859 14.9219C84.9032 15.2176 85.205 15.2803 86.3106 15.2803C87.9062 15.2803 88.4202 14.9591 88.4202 13.9618C88.4202 12.9645 87.9062 12.6433 86.3106 12.6433C85.205 12.6433 84.9032 12.7061 84.5859 13.0018ZM46.5362 21.7372L53.4363 25.6792V32.9617C53.4363 36.9672 53.398 40.2443 53.3511 40.2443C53.3041 40.2443 52.8889 40.0177 52.4281 39.7406C49.0589 37.715 41.1016 33.1025 40.5225 32.8395C39.7346 32.4816 38.4198 32.4121 37.6894 32.6897C37.4279 32.7891 34.4483 34.4956 31.0679 36.4818C27.6875 38.468 24.8111 40.1355 24.6757 40.1875C24.4672 40.2675 24.4296 39.1693 24.4296 33.0005V25.719L31.6764 21.5691C37.8827 18.0151 38.9743 17.4464 39.2796 17.6074C39.4756 17.7108 42.7411 19.5692 46.5362 21.7372ZM65.2871 21.323C64.3993 22.1829 64.317 22.327 64.3678 22.9318C64.4381 23.7663 65.1209 24.3521 65.8192 24.1768C66.3867 24.0344 67.6102 22.9494 67.9548 22.2833C68.4347 21.355 67.8193 20.3786 66.7541 20.3786C66.3974 20.3786 65.9941 20.6383 65.2871 21.323ZM81.4475 20.6383C80.9393 20.9941 80.7981 21.6811 81.1094 22.2833C81.454 22.9494 82.6776 24.0344 83.245 24.1768C83.9433 24.3521 84.6261 23.7663 84.6964 22.9318C84.7472 22.327 84.665 22.1829 83.7772 21.323C82.7328 20.3115 82.156 20.1418 81.4475 20.6383ZM37.9193 21.0922C34.7222 21.8701 33.0834 25.2589 34.5048 28.1533C35.4467 30.0717 37.1704 31.0437 39.3521 30.8872C40.7964 30.7835 41.7406 30.3192 42.6817 29.25C44.4428 27.2492 44.3331 24.2962 42.4266 22.3896C41.3298 21.2928 39.3899 20.7344 37.9193 21.0922ZM39.5583 23.7187C41.51 24.261 41.9103 26.9018 40.1989 27.9452C39.0258 28.6607 37.4243 28.2127 36.8533 27.0094C36.4971 26.2587 36.4848 25.8185 36.7991 25.0757C37.0915 24.3848 37.5883 23.9237 38.2549 23.7238C38.9273 23.5223 38.8523 23.5227 39.5583 23.7187ZM73.6976 23.891C72.9717 24.5673 72.9753 26.9172 73.7032 27.5955C74.1754 28.0353 74.8913 28.0331 75.3666 27.5902C76.0925 26.9139 76.089 24.5639 75.361 23.8857C74.8888 23.4458 74.173 23.4481 73.6976 23.891ZM51.1109 42.0224C57.5627 45.8044 63.0194 49.0617 63.2371 49.2609C63.7738 49.7524 63.7504 50.5147 63.1815 51.0838C62.8421 51.4233 62.6118 51.5113 62.2512 51.4391C61.8391 51.3568 55.7268 47.8225 42.5368 40.0399C40.0927 38.5977 39.1754 38.1415 38.8451 38.2039C38.6033 38.2497 33.3821 41.2392 27.2424 44.8474C15.6536 51.658 15.3505 51.8093 14.6695 51.1283C14.5306 50.9894 14.3665 50.6237 14.305 50.3159C14.2117 49.8489 14.2765 49.6772 14.6965 49.2797C15.4463 48.5707 38.5089 35.146 38.9774 35.146C39.1989 35.146 44.6591 38.2403 51.1109 42.0224ZM48.2682 46.4748L57.3918 51.826L57.4375 59.8358C57.4626 64.241 57.4405 67.8453 57.3881 67.8453C57.3359 67.8453 56.2429 67.6514 54.9593 67.4143C51.5998 66.7937 46.9311 66.2953 42.2385 66.056L38.1545 65.8477L38.1042 59.6424L38.054 53.4371L37.5668 52.9499L37.0795 52.4626L31.8149 52.4113C27.2538 52.3668 26.4771 52.3977 26.0035 52.6426C24.9943 53.1646 24.957 53.4492 24.957 60.6318C24.957 66.7118 24.9366 67.1427 24.6493 67.1506C24.4801 67.1551 23.4518 67.4185 22.364 67.7356L20.3862 68.3124V60.1137V51.9151L29.5717 46.5259C34.6238 43.5621 38.8444 41.1339 38.9509 41.1302C39.0576 41.1263 43.2504 43.5315 48.2682 46.4748ZM41.549 52.7063C41.2473 52.8924 40.9112 53.3014 40.8019 53.615C40.497 54.4891 40.5348 61.5402 40.8481 62.2901C41.333 63.4506 41.3314 63.4503 47.2319 63.4503H52.5517L53.1259 62.9373L53.7 62.4243V57.9309V53.4374L53.2129 52.9501L52.7256 52.4626L47.4115 52.4151C42.4263 52.3707 42.0634 52.3888 41.549 52.7063ZM35.5049 60.4389V65.8663L33.5272 65.9866C31.4557 66.1124 28.6641 66.3893 27.9895 66.5356L27.594 66.6214V60.8166V55.0117H31.5494H35.5049V60.4389ZM45.877 57.9125V60.8132H44.5585H43.24V57.9125V55.0117H44.5585H45.877V57.9125ZM51.1509 57.9125V60.8132H49.8325H48.514V57.9125V55.0117H49.8325H51.1509V57.9125Z" fill="#3F5260"/>
</svg>
