<svg width="77" height="77" viewBox="0 0 77 77" fill="none" xmlns="http://www.w3.org/2000/svg">
<path fill-rule="evenodd" clip-rule="evenodd" d="M29.4877 0.163405C38.3045 1.16099 46.0639 6.53501 50.0918 14.4334C51.5359 17.2656 52.5791 20.7123 52.8914 23.6844C52.9738 24.468 52.9433 24.6412 52.6599 25.0004C52.4228 25.3009 52.1989 25.414 51.8411 25.414C51.0366 25.414 50.8488 25.0503 50.465 22.7477C48.4202 10.4768 37.8368 1.78259 25.5761 2.30146C10.5061 2.93915 -0.224716 16.7156 2.79397 31.5495C4.36567 39.2734 10.1607 46.1401 17.542 49.0252C20.8555 50.3203 23.4987 50.7537 27.3727 50.6373C31.3001 50.5193 33.7308 49.9205 37.2356 48.2078C39.8094 46.9502 41.5219 45.719 43.6295 43.6117C46.1117 41.1296 47.7031 38.7425 49.0507 35.4797C49.5632 34.2383 50.3299 31.4613 50.4801 30.3019C50.709 28.5346 50.9597 28.1211 51.8022 28.1211C52.0054 28.1211 52.3314 28.2506 52.5267 28.4089C52.9687 28.7667 52.9638 29.4794 52.504 31.7493C51.9155 34.6549 50.6863 37.811 49.2076 40.2145L48.5682 41.2536L50.6656 43.3504L52.7631 45.4471L53.2287 45.2065C53.8753 44.8721 55.1317 44.8991 55.8844 45.2633C56.2411 45.436 57.4296 46.4984 58.715 47.7938C60.5805 49.6736 60.9308 50.0979 60.9308 50.4779C60.9308 51.0488 60.3836 51.5832 59.799 51.5832C59.4398 51.5832 58.9783 51.201 57.1646 49.4024C55.3373 47.5903 54.891 47.2217 54.5243 47.2217C54.1494 47.2217 53.5686 47.7363 50.6616 50.6444C47.7296 53.5776 47.2402 54.1314 47.2402 54.5158C47.2402 54.9091 48.4641 56.1881 57.1332 64.8546C64.9463 72.665 67.1053 74.7444 67.4023 74.7444C67.9433 74.7444 74.7717 67.9186 74.7717 67.378C74.7717 67.0904 73.373 65.6075 68.5282 60.7593C62.8792 55.1061 62.2848 54.4648 62.2848 54.0247C62.2848 53.3937 62.7411 52.9368 63.3713 52.9368C63.8092 52.9368 64.4635 53.5433 70.1406 59.2126C73.6649 62.7322 76.5341 65.7185 76.6735 66.012C77.0593 66.8246 77.105 67.7309 76.8011 68.5423C76.5823 69.1262 75.8927 69.8988 72.9825 72.8194C69.305 76.5103 68.6834 76.9899 67.5678 76.9971C66.1336 77.0064 66.5001 77.3286 55.6989 66.561C48.9174 59.8006 45.4794 56.2693 45.2805 55.8596C44.9169 55.1109 44.8903 53.854 45.2244 53.2082L45.4651 52.7428L43.3726 50.6509L41.28 48.559L40.2356 49.1947C37.8332 50.6572 34.7647 51.8554 31.7443 52.5102C30.3467 52.8133 29.7484 52.8527 26.554 52.8527C22.471 52.8527 21.3311 52.6835 18.0397 51.588C8.26115 48.334 1.31599 39.6595 0.153954 29.2491C-0.928955 19.5483 3.77156 9.68584 12.036 4.31874C17.2075 0.960213 23.4316 -0.521807 29.4877 0.163405ZM29.1753 6.62705C31.5807 6.93837 34.7696 8.0459 36.7703 9.26472C42.903 13.0009 46.4957 19.3074 46.5268 26.3916C46.551 31.8972 44.5188 36.863 40.6778 40.6837C37.7366 43.6094 34.0255 45.5358 29.939 46.2584C28.0727 46.5883 24.8974 46.5883 23.0549 46.2582C13.106 44.4763 6.00884 35.6028 6.51389 25.577C6.99832 15.9552 14.0825 8.13073 23.6203 6.6827C25.1563 6.44943 27.6128 6.42491 29.1753 6.62705ZM24.1468 8.8755C20.2028 9.43603 16.8012 11.1378 13.973 13.965C7.53857 20.3973 6.96868 30.501 12.6385 37.6248C16.9366 43.025 24.1836 45.462 30.8696 43.7554C34.0544 42.9425 36.5079 41.5542 38.9413 39.1879C42.4428 35.7833 44.2584 31.5028 44.2733 26.6172C44.2853 22.7061 43.199 19.2432 40.9877 16.1442C38.3146 12.3983 34.0168 9.72645 29.4219 8.9543C27.9531 8.7075 25.5785 8.67201 24.1468 8.8755ZM28.1336 12.2058C28.9035 12.6028 39.537 21.7309 40.0762 22.4575C41.1102 23.8511 40.9651 25.9735 39.7467 27.2753C39.192 27.8682 37.9695 28.4186 37.2038 28.4204L36.5705 28.4219L36.5268 33.299C36.4853 37.9544 36.4692 38.1951 36.1731 38.5914C36.0025 38.8197 35.6761 39.1459 35.4477 39.3164C35.0416 39.6196 34.8474 39.6275 26.7488 39.6679C18.7126 39.7081 18.4468 39.7003 17.8457 39.407C17.5051 39.2407 17.0571 38.8549 16.8502 38.5497L16.4741 37.9949L16.4255 33.2284L16.3768 28.4618L15.5773 28.3792C13.6476 28.1801 12.2862 26.6456 12.2793 24.662C12.2741 23.1698 12.7178 22.4886 14.9444 20.5709C17.1728 18.6518 17.3296 18.5589 17.9228 18.8045C18.4203 19.0105 18.6578 19.3605 18.6508 19.8769C18.6444 20.3388 18.5417 20.4533 16.6998 22.0505C14.6078 23.8644 14.5251 23.9646 14.5251 24.6894C14.5251 25.7133 15.644 26.4462 16.6298 26.0679C16.7704 26.0141 18.9508 24.1867 21.4751 22.0072C25.1714 18.816 26.1488 18.0445 26.4954 18.0445C26.9696 18.0445 26.953 18.0313 32.196 22.5504C36.7108 26.442 36.3416 26.166 37.0331 26.166C38.1092 26.166 38.8261 25.0473 38.4229 23.9972C38.3727 23.8662 37.2048 22.7883 35.8277 21.6019C34.4507 20.4154 31.9404 18.2498 30.2494 16.7894C26.3584 13.4292 26.6286 13.4862 24.2579 15.5253C21.7611 17.673 21.6658 17.7437 21.27 17.7437C20.7501 17.7437 20.16 17.1099 20.16 16.5513C20.16 16.1558 20.4266 15.8645 22.2287 14.2909C23.3663 13.2972 24.5342 12.3677 24.8238 12.2252C25.1165 12.0811 25.8183 11.9417 26.4035 11.9113C27.2796 11.8657 27.5705 11.9153 28.1336 12.2058ZM22.2287 24.3413L18.806 27.2858V32.3658V37.4458H20.3105H21.8149V33.3775C21.8149 28.8767 21.8522 28.6699 22.7626 28.1151C23.2013 27.8476 23.5363 27.8214 26.5239 27.8209C29.1619 27.8205 29.8898 27.865 30.2448 28.0485C31.0983 28.4896 31.1426 28.7489 31.1426 33.3023V37.4458H32.7222H34.3019L34.2912 32.3699L34.2804 27.294L30.4173 23.9733L26.554 20.6525L26.1026 21.0246C25.8544 21.2293 24.111 22.7219 22.2287 24.3413ZM24.0716 33.7611V37.4458H26.4787H28.8859V33.7611V30.0763H26.4787H24.0716V33.7611ZM45.214 45.2166L43.1577 47.2722L45.084 49.2022L47.0105 51.1321L49.0811 49.0661L51.1516 47.0001L49.2357 45.0806C48.182 44.0248 47.3087 43.1609 47.295 43.1609C47.2814 43.1609 46.3449 44.086 45.214 45.2166Z" fill="#3F5260"/>
</svg>
